<?xml version="1.0" encoding="UTF-8" standalone="no"?>
<!-- Created with Inkscape (http://www.inkscape.org/) -->

<svg
   version="1.1"
   id="Layer_1"
   x="0px"
   y="0px"
   viewBox="0 0 699.99999 830.85541"
   xml:space="preserve"
   sodipodi:docname="Logo Communauté de communes Méditerranée Porte des Maures copie.svg"
   width="700"
   height="830.85541"
   inkscape:version="1.1.1 (c3084ef, 2021-09-22)"
   xmlns:inkscape="http://www.inkscape.org/namespaces/inkscape"
   xmlns:sodipodi="http://sodipodi.sourceforge.net/DTD/sodipodi-0.dtd"
   xmlns="http://www.w3.org/2000/svg"
   xmlns:svg="http://www.w3.org/2000/svg"><defs
   id="defs879" /><sodipodi:namedview
   id="namedview877"
   pagecolor="#ffffff"
   bordercolor="#666666"
   borderopacity="1.0"
   inkscape:pageshadow="2"
   inkscape:pageopacity="0.0"
   inkscape:pagecheckerboard="0"
   showgrid="false"
   inkscape:zoom="0.51481481"
   inkscape:cx="368.09353"
   inkscape:cy="404.02878"
   inkscape:window-width="1440"
   inkscape:window-height="900"
   inkscape:window-x="0"
   inkscape:window-y="0"
   inkscape:window-maximized="0"
   inkscape:current-layer="Layer_1" />
<style
   type="text/css"
   id="style824">
	.st0{enable-background:new    ;}
	.st1{fill:#FF0040;}
	.st2{fill:#FFFFFF;}
</style>
<polygon
   class="st1"
   points="332.1,210.8 257.9,240.4 475.9,412.3 596.1,364.8 552.8,328.5 506.6,348 "
   id="polygon842"
   transform="matrix(0.99754523,0,0,0.99754523,-102.68892,-134.86812)" /><g
   id="g1022"><path
     class="st1"
     d="m 470.50057,678.82953 20.05065,-151.1281 c 22.14551,-8.17988 35.41286,-10.87325 39.90181,-8.08012 4.48896,2.79313 5.28699,15.76121 2.1946,38.90426 l -6.68355,50.37604 c -2.89288,21.74648 -7.58134,36.60991 -14.16514,44.49051 -6.38429,7.88061 -20.25017,16.35975 -41.29837,25.43741 m 31.22316,-235.22117 15.96073,-120.10444 c 15.26244,-5.88552 25.53715,-9.07766 30.62463,-9.37693 5.08748,-0.29926 8.7784,2.1946 11.17251,7.6811 2.39411,5.4865 2.49386,16.65901 0.19951,33.51752 -4.28945,32.0212 -8.87815,52.27137 -13.76612,60.65075 -4.78822,8.08012 -13.96564,14.96318 -27.83152,20.74894 -0.49877,0.19951 -0.99754,0.39902 -1.49631,0.59853 -1.0973,0.49877 -2.39411,0.99754 -3.79068,1.59607 -2.99263,1.29681 -6.68355,2.79313 -11.07275,4.68846 M 380.921,290.68468 309.1975,830.85542 481.57332,761.92504 c 8.37938,-3.39165 16.45949,-6.58379 24.04084,-9.77594 46.78487,-19.45213 78.80607,-35.21335 96.16336,-47.48315 20.15041,-14.16514 35.91163,-31.82169 47.08413,-52.96965 11.17251,-21.14796 19.15287,-49.87726 24.04084,-86.38742 l 6.68356,-50.07677 c 4.68846,-35.11359 1.99509,-58.85517 -7.98037,-70.92547 -9.97545,-12.07029 -31.72193,-14.96317 -65.23945,-8.47913 31.82169,-19.05311 53.76768,-36.90917 65.93774,-53.46842 12.17005,-16.55926 20.34992,-40.7996 24.53961,-72.32203 6.18478,-46.68512 3.2919,-77.50927 -8.7784,-92.5722 -12.0703,-15.06293 -29.72685,-21.14796 -53.06941,-18.45459 -23.2428,2.79313 -58.35639,13.56662 -105.34077,32.32047 l -148.734,59.35394"
     id="path826"
     style="stroke-width:0.997545" /><path
     class="st1"
     d="m 170.63847,639.52625 c -18.15532,-14.16515 -29.32783,-26.03594 -33.71703,-35.41286 -4.28944,-9.37693 -5.08748,-25.13814 -2.1946,-47.3834 l 6.48405,-51.37358 c 2.99263,-23.54207 7.08257,-36.21089 12.17005,-37.80696 5.08748,-1.59607 17.35729,4.3892 36.70966,17.95581 l -19.45213,154.02099 m 16.06048,-250.58337 c -11.87079,-9.07766 -19.15287,-18.25507 -21.64673,-27.43249 -2.59362,-9.47668 -1.89534,-30.52488 2.29435,-63.24437 2.1946,-17.25753 5.08748,-28.23053 8.87815,-33.01874 3.79068,-4.78822 7.98037,-6.38429 12.86834,-4.78822 4.88797,1.59607 13.96563,7.28208 27.23298,16.95827 l -15.46195,122.3988 c -3.79067,-2.99264 -6.98282,-5.4865 -9.57643,-7.48159 -1.19706,-0.89779 -2.29436,-1.69583 -3.19215,-2.49387 -0.49877,-0.1995 -0.99754,-0.59852 -1.39656,-0.89779 M 361.36912,287.69204 228.6956,187.83777 c -40.7996,-30.32538 -72.32203,-53.9672 -94.16827,-62.54609 -21.84624,-8.57889 -40.600091,-6.98282 -56.261551,4.88797 -15.5617,11.87079 -26.43495,41.49788 -32.42022,89.08079 -4.08993,32.12096 -2.29435,57.95738 5.18724,77.40951 7.48159,19.45213 24.24035,42.49543 50.276281,69.22964 -30.824151,-14.76367 -52.670391,-17.35729 -65.538721,-7.98036 -12.86834,9.47668 -21.54698,32.0212 -26.0359304,67.93283 l -6.48405,50.97456 c -4.68846,37.20844 -4.28944,67.63357 1.0973,91.17563 5.38675,23.64182 16.1602304,44.98929 32.1209604,64.04241 13.76612,16.45949 40.99911,40.20107 81.698951,71.22473 6.38429,4.88797 13.1676,9.97545 20.34992,15.26244 L 288.1493,829.65837 361.36912,287.69204"
     id="path834"
     style="stroke-width:0.997545" /><polygon
     class="st1"
     points="602.3,256 650.1,236.9 609.3,204.1 560.8,223.4 519.8,190 569.7,169.8 526.8,135.2 399.2,186.1 615.8,358.2 749.8,305.2 706.5,270.3 650.1,293.4 "
     id="polygon844"
     transform="matrix(0.99754523,0,0,0.99754523,-102.68892,-134.86812)" /></g>
<g
   id="g1035"><polyline
     class="st2"
     points="372.9,902.9 371.5,913 334.7,888 332.3,904.6 378.3,936 382.1,909.2 372.9,902.9    "
     id="polyline848"
     transform="matrix(0.99754523,0,0,0.99754523,-102.68892,-134.86812)" /><polyline
     class="st2"
     points="341.1,842.8 337.2,870.6 383.2,901.9 387.3,873.1 378.1,866.8 376.3,879 366.2,872.1 367.7,861.7     359,855.8 357.5,866.2 348.7,860.2 350.3,849.1 341.1,842.8    "
     id="polyline850"
     transform="matrix(0.99754523,0,0,0.99754523,-102.68892,-134.86812)" /><path
     class="st2"
     d="m 281.76501,688.70522 -12.86833,-8.77839 c 0.39901,-2.39411 0.89779,-3.79067 1.39656,-4.08994 0.29926,-0.19951 0.79803,-0.0997 1.59607,0.29927 0.59853,0.29926 1.29681,0.69828 2.09485,1.2968 l 4.28944,2.89289 c 1.89534,1.2968 2.99264,2.3941 3.39165,3.39165 0.29927,0.89779 0.39902,2.59362 0.0998,4.98772 m -19.95091,-13.66636 -10.17496,-6.98282 c 0.29927,-1.69583 0.49878,-2.79313 0.69828,-3.2919 0.19951,-0.49877 0.69829,-0.69828 1.29681,-0.69828 0.29927,0 0.69829,0.0997 1.19706,0.39902 0.49877,0.29926 1.0973,0.59852 1.89533,1.0973 2.69338,1.89533 4.28945,3.19214 4.88798,4.08993 0.49877,0.79804 0.69828,2.09485 0.39901,3.69092 -0.0997,0.39902 -0.0997,0.99754 -0.19951,1.69583 m -5.98527,-26.53471 c -2.09484,-0.99754 -3.79067,-1.39656 -5.08748,-1.0973 -1.99509,0.39902 -3.49141,1.79558 -4.48895,4.08994 -0.99755,2.29435 -1.79558,6.08502 -2.59362,11.27226 l -2.39411,16.55925 45.88708,31.22317 2.69338,-19.15287 c 0.99754,-6.68356 1.2968,-11.27226 1.09729,-13.76613 -0.1995,-2.49386 -0.99754,-4.78821 -2.3941,-6.7833 -1.39657,-1.9951 -3.59117,-4.08994 -6.68356,-6.18479 l -4.28944,-2.89288 c -0.99755,-0.69828 -1.99509,-1.19705 -2.79313,-1.69582 -1.69582,-0.79804 -3.09239,-1.0973 -4.08993,-0.79804 -1.59608,0.39902 -3.09239,2.29435 -4.18969,5.68601 -0.0998,-3.79067 -0.59853,-6.68355 -1.49632,-8.57889 -0.89779,-1.89534 -2.69337,-3.79067 -5.38675,-5.58625 -1.2968,-0.99755 -2.59361,-1.79559 -3.79067,-2.29436"
     id="path852"
     style="stroke-width:0.997545" /><path
     class="st2"
     d="m 287.94979,640.62354 c -0.89779,-0.39901 -2.29435,-1.2968 -4.18969,-2.59361 l -21.44722,-14.56416 c -2.39411,-1.59608 -3.79067,-2.79313 -4.18969,-3.59117 -0.39902,-0.79803 -0.59853,-1.59607 -0.39902,-2.49386 0.19951,-0.99754 0.49877,-1.49632 1.19705,-1.39656 0.19951,0 0.49878,0.0998 0.89779,0.29926 0.79804,0.39902 1.79559,0.99755 3.19215,1.99509 l 21.0482,14.36465 c 2.69338,1.79558 4.3892,3.19215 5.08748,3.99018 0.69829,0.79804 0.89779,1.79559 0.79804,2.89289 -0.19951,1.09729 -0.59853,1.59607 -1.19705,1.49631 -0.19951,-0.0998 -0.49878,-0.19951 -0.79804,-0.39902 m -25.53716,-40.50033 c -1.89533,-0.89779 -3.69092,-1.0973 -5.4865,-0.49877 -1.79558,0.59852 -3.39165,1.89533 -4.58871,4.08993 -1.19705,2.1946 -1.99509,4.98773 -2.49386,8.37938 -0.49877,3.59116 -0.49877,7.08257 -0.0998,10.37447 0.49877,3.2919 1.39656,6.28454 2.69337,8.97791 1.39656,2.69337 2.99263,4.78822 4.88797,6.38429 1.89534,1.59607 5.08748,3.99018 9.77594,7.08257 l 7.88061,5.38674 c 4.68846,3.19215 8.08012,5.28699 9.97545,6.28454 0.0998,0 0.0998,0.0997 0.19951,0.0997 1.89534,0.89779 3.69092,1.0973 5.4865,0.49878 1.79558,-0.59853 3.39166,-1.89534 4.58871,-4.08994 1.19705,-2.1946 1.99509,-4.98773 2.49386,-8.37938 0.49878,-3.59116 0.49878,-7.08257 0.0998,-10.37447 -0.49878,-3.2919 -1.39657,-6.28453 -2.69338,-8.97791 -1.39656,-2.69337 -2.99263,-4.78821 -4.88797,-6.38429 -1.89533,-1.59607 -5.08748,-3.99018 -9.77594,-7.08257 l -7.88061,-5.38674 c -4.68846,-3.19215 -8.08011,-5.28699 -9.97545,-6.28454 -0.0998,0 -0.0998,0 -0.19951,-0.0997"
     id="path854"
     style="stroke-width:0.997545" /><polyline
     class="st2"
     points="363.8,683.7 361.8,697.6 382.5,711.7 360.5,706.9 358.5,720.8 404.5,752.2 406.5,738.2 385.6,724     407.7,729.6 409.8,715 363.8,683.7    "
     id="polyline856"
     transform="matrix(0.99754523,0,0,0.99754523,-102.68892,-134.86812)" /><path
     class="st2"
     d="M 302.01518,546.55503 271.78956,526.0056 c 0.29926,-1.79558 0.59852,-2.99264 0.89779,-3.39166 0.39902,-0.49877 0.89779,-0.59852 1.49632,-0.39901 0.0997,0 0.1995,0.0997 0.39901,0.0997 0.69828,0.29926 1.89534,1.0973 3.69092,2.29436 l 17.85606,12.17005 c 3.09239,2.09484 4.88797,3.69091 5.4865,4.68846 0.59853,0.99754 0.79804,2.69337 0.39902,5.08748 m -27.13323,-41.99665 c -0.19951,-0.0998 -0.29927,-0.19951 -0.49878,-0.19951 -1.49631,-0.59853 -2.99263,-0.59853 -4.38919,0 -1.39657,0.59852 -2.59362,2.1946 -3.49141,4.68846 -0.89779,2.49386 -1.99509,7.6811 -3.09239,15.76121 l -1.79558,12.36956 45.88708,31.32293 2.99263,-20.94845 c 0.59853,-3.99019 0.79804,-7.08258 0.79804,-9.27718 0,-2.19459 -0.29927,-4.18969 -0.89779,-6.08502 -0.59853,-1.89534 -1.49632,-3.59116 -2.89288,-5.08748 -1.29681,-1.49632 -3.99019,-3.59116 -8.17988,-6.48405 l -16.06047,-10.97299 c -3.89043,-2.49387 -6.68356,-4.28945 -8.37938,-5.08748"
     id="path858"
     style="stroke-width:0.997545" /><path
     class="st2"
     d="m 273.48538,453.98283 -2.1946,15.26244 c 6.88307,7.08258 12.66883,12.66883 17.45705,16.95827 -0.8978,-0.49877 -1.99509,-1.0973 -3.39166,-1.69582 -3.49141,-1.69583 -8.57889,-3.89043 -15.36219,-6.5838 l -2.1946,15.26244 30.9239,8.27963 16.659,11.27226 2.1946,-15.3622 -16.659,-11.37202 -27.4325,-32.0212"
     id="path860"
     style="stroke-width:0.997545" /><path
     class="st2"
     d="m 317.27762,439.81769 -12.86833,-8.7784 c 0.39901,-2.39411 0.89779,-3.79067 1.39656,-4.08993 0.29926,-0.19951 0.79804,-0.0998 1.59607,0.29926 0.59853,0.29926 1.29681,0.69828 2.09485,1.29681 l 4.28944,2.89288 c 1.89534,1.29681 2.99264,2.39411 3.39165,3.2919 0.29927,0.99755 0.29927,2.69337 0.0998,5.08748 M 297.227,426.15132 287.05204,419.1685 c 0.29926,-1.69582 0.49877,-2.79312 0.69828,-3.29189 0.19951,-0.49878 0.69828,-0.69829 1.29681,-0.69829 0.29926,0 0.69828,0.0998 1.19705,0.39902 0.49878,0.29927 1.19706,0.59853 1.89534,1.0973 2.69337,1.89534 4.3892,3.19215 4.88797,3.99018 0.49877,0.79804 0.69828,2.09485 0.39902,3.69092 0,0.49877 -0.0998,1.0973 -0.19951,1.79558 m -5.88552,-26.5347 c -2.09484,-0.99755 -3.79067,-1.39657 -5.08748,-1.0973 -1.99509,0.39902 -3.49141,1.79558 -4.48895,4.08993 -0.99755,2.29436 -1.79558,6.08503 -2.59362,11.27226 l -2.39411,16.55926 45.88708,31.32292 2.69338,-19.25263 c 0.99754,-6.68355 1.2968,-11.27226 1.0973,-13.76612 -0.19951,-2.49386 -0.99755,-4.78822 -2.39411,-6.78331 -1.39657,-1.99509 -3.59117,-4.08993 -6.68356,-6.18478 l -4.28944,-2.89288 c -0.99755,-0.69828 -1.89534,-1.19705 -2.79313,-1.59607 -1.69582,-0.79804 -3.09239,-1.0973 -4.18969,-0.79804 -1.59607,0.39902 -3.09239,2.29436 -4.18969,5.68601 -0.0997,-3.79067 -0.59852,-6.68355 -1.49632,-8.57889 -0.89779,-1.89534 -2.69337,-3.79067 -5.38674,-5.58625 -1.29681,-1.0973 -2.59362,-1.89534 -3.69092,-2.39411"
     id="path862"
     style="stroke-width:0.997545" /><polyline
     class="st2"
     points="427.9,517.1 426.4,527.2 389.6,502.1 387.3,518.8 433.3,550.1 437.1,523.4 427.9,517.1    "
     id="polyline864"
     transform="matrix(0.99754523,0,0,0.99754523,-102.68892,-134.86812)" /><path
     class="st2"
     d="m 328.05111,359.01653 c -0.89779,-0.39902 -2.29436,-1.29681 -4.18969,-2.59362 L 302.4142,341.85875 c -2.39411,-1.59607 -3.79068,-2.79313 -4.18969,-3.59116 -0.39902,-0.79804 -0.59853,-1.59608 -0.39902,-2.49387 0.0997,-0.99754 0.49877,-1.49631 1.19705,-1.39656 0.19951,0 0.49877,0.0998 0.99755,0.29926 0.79803,0.39902 1.79558,0.99755 3.19214,1.99509 l 21.14796,14.36466 c 2.69337,1.79558 4.3892,3.19214 5.08748,3.99018 0.69828,0.79803 0.89779,1.79558 0.79804,2.89288 -0.19951,1.0973 -0.59853,1.59607 -1.19706,1.49632 -0.39902,-0.0998 -0.69828,-0.19951 -0.99754,-0.39902 M 302.6137,318.61595 c -1.89533,-0.8978 -3.69091,-1.0973 -5.48649,-0.59853 -1.79559,0.59853 -3.39166,1.89533 -4.58871,4.08993 -1.19706,2.1946 -1.99509,4.98773 -2.49387,8.37938 -0.49877,3.59117 -0.49877,7.08257 -0.0997,10.37447 0.49877,3.2919 1.39656,6.28454 2.69337,8.97791 1.39657,2.69337 2.99264,4.78822 4.88797,6.38429 1.89534,1.59607 5.08748,3.99018 9.77595,7.08257 l 7.8806,5.38675 c 4.68847,3.19214 8.08012,5.28699 9.97546,6.28453 0.0997,0 0.0997,0.0998 0.19951,0.0998 1.89533,0.89779 3.69091,1.0973 5.48649,0.49877 1.79559,-0.59853 3.39166,-1.89534 4.58871,-4.08994 1.19706,-2.1946 1.99509,-4.98772 2.49387,-8.37938 0.49877,-3.59116 0.49877,-7.08257 0.0998,-10.37447 -0.49877,-3.2919 -1.39656,-6.28453 -2.69337,-8.9779 -1.39657,-2.69338 -2.99264,-4.78822 -4.88797,-6.38429 -1.89534,-1.59608 -5.08748,-3.99019 -9.77595,-7.08258 l -7.8806,-5.38674 c -4.68847,-3.19214 -8.08012,-5.28699 -9.97546,-6.28453 -0.0998,0 -0.19951,0 -0.19951,0"
     id="path866"
     style="stroke-width:0.997545" /><path
     class="st2"
     d="m 309.99554,271.43206 c -1.29681,-0.59853 -2.49386,-0.99755 -3.49141,-1.19706 -2.09484,-0.39902 -4.08993,0.49877 -5.98527,2.79313 -1.89534,2.1946 -3.19215,5.78576 -3.89043,10.67373 -0.69828,4.98773 -0.39902,9.57644 0.79804,13.76613 1.19705,4.28944 2.79313,7.38183 4.68846,9.37692 1.89534,1.99509 4.98773,4.48896 9.37693,7.48159 l 13.66637,9.27717 c 3.09239,2.09485 5.38674,3.49141 7.08257,4.28945 0,0 0.0998,0 0.0998,0.0998 1.59607,0.79804 3.2919,0.99755 4.88797,0.69828 1.59608,-0.29926 3.09239,-1.29681 4.3892,-3.09239 1.29681,-1.79558 2.1946,-4.08993 2.59362,-6.78331 0.29926,-2.29435 0.29926,-4.5887 -0.19951,-6.7833 -0.49877,-2.1946 -1.29681,-4.3892 -2.59362,-6.48405 l 3.49141,0.69828 1.49632,-10.47422 -24.63937,-16.75876 -2.79312,19.45213 6.98281,4.78822 0.49878,-3.39165 5.48649,3.69091 c 2.09485,1.49632 3.49141,2.69337 4.18969,3.59117 0.69829,0.89779 0.89779,1.99509 0.79804,3.19214 -0.19951,1.0973 -0.59853,1.59607 -1.29681,1.49632 -0.29926,0 -0.69828,-0.19951 -1.0973,-0.39902 -0.79803,-0.39902 -1.79558,-0.99755 -2.99263,-1.79558 l -22.24526,-14.96318 c -2.29436,-1.59607 -3.79067,-2.79313 -4.28945,-3.49141 -0.49877,-0.79803 -0.69828,-1.59607 -0.49877,-2.69337 0.19951,-1.19705 0.59853,-1.69583 1.29681,-1.59607 0.19951,0 0.49877,0.0997 0.79804,0.29926 0.89779,0.39902 2.29435,1.29681 4.18968,2.59362 l 4.18969,2.89288 2.39411,-16.55925 -1.99509,-1.39656 c -1.99509,-1.49632 -3.79067,-2.49387 -5.38674,-3.2919"
     id="path868"
     style="stroke-width:0.997545" /></g>
</svg>
